<?xml version="1.0" encoding="UTF-8" ?>
<!DOCTYPE svg PUBLIC "-//W3C//DTD SVG 1.1//EN" "http://www.w3.org/Graphics/SVG/1.1/DTD/svg11.dtd">
<svg width="1233pt" height="232pt" viewBox="0 0 1233 232" version="1.1" xmlns="http://www.w3.org/2000/svg">
<path fill="#ffffff" d=" M 0.00 0.00 L 1233.00 0.00 L 1233.00 232.00 L 0.00 232.00 L 0.00 0.00 Z" />
<path fill="#000000" d=" M 82.41 10.61 C 84.09 9.95 87.33 9.27 87.45 11.95 C 86.68 15.78 84.94 19.32 83.71 23.00 C 98.94 15.47 115.79 9.92 132.98 11.21 C 142.61 11.93 152.62 15.56 158.78 23.32 C 164.41 30.55 165.43 40.18 164.82 49.03 C 164.07 63.42 157.67 77.35 147.44 87.46 C 139.68 95.27 129.94 100.88 119.70 104.76 C 130.78 106.75 142.27 111.57 148.55 121.40 C 152.62 127.06 153.60 134.35 152.63 141.12 C 150.58 156.92 142.66 171.61 131.66 183.00 C 143.09 183.23 155.16 182.47 165.19 176.41 C 172.37 172.34 177.32 165.42 181.19 158.32 C 186.87 142.04 192.74 125.83 198.46 109.57 C 199.76 105.78 202.08 101.77 206.06 100.36 C 207.40 100.06 209.59 99.44 210.31 101.10 C 210.82 102.69 210.17 104.30 209.68 105.80 C 204.00 121.35 198.31 136.90 192.67 152.47 C 189.62 161.03 187.40 170.62 190.41 179.51 C 192.56 185.99 198.68 190.49 205.23 191.79 C 215.32 193.85 225.61 190.86 234.81 186.82 C 249.42 180.51 261.79 170.01 272.16 158.10 C 276.04 154.44 277.89 149.30 281.12 145.15 C 292.88 128.79 310.84 117.99 329.56 111.34 C 337.09 108.61 344.83 106.52 352.67 104.84 C 362.67 76.16 372.68 47.49 382.70 18.82 C 384.17 14.42 387.79 9.71 392.92 10.05 C 395.23 10.42 394.33 13.25 393.81 14.72 C 374.64 69.18 355.49 123.65 336.31 178.11 C 334.99 181.86 334.57 186.02 335.59 189.90 C 336.54 193.96 340.88 196.69 344.93 196.41 C 351.26 195.23 356.80 191.63 361.90 187.86 C 370.86 180.91 378.88 172.80 386.14 164.10 C 388.48 161.45 390.61 158.26 394.03 156.92 C 395.69 156.21 398.60 156.66 398.49 158.99 C 398.31 161.92 395.89 163.95 394.20 166.12 C 384.96 177.17 374.93 187.65 363.44 196.37 C 355.32 202.13 346.25 208.22 335.88 207.94 C 329.52 207.80 324.69 202.11 324.01 196.06 C 315.31 202.53 304.76 206.58 293.95 207.40 C 286.53 207.85 278.01 206.10 273.55 199.60 C 268.00 191.44 268.67 180.91 269.88 171.58 C 258.64 182.59 245.48 191.78 230.99 198.00 C 220.94 202.20 209.92 205.07 198.97 203.53 C 192.88 202.65 186.72 200.03 182.78 195.15 C 178.67 189.69 177.89 182.56 178.03 175.94 C 167.33 187.58 151.45 192.74 136.06 194.03 C 130.07 194.42 124.03 194.81 118.08 193.74 C 109.09 199.44 99.43 204.46 88.85 206.38 C 75.52 209.01 60.59 209.09 48.84 201.38 C 39.19 195.35 33.76 184.62 30.99 173.91 C 27.89 182.50 24.91 191.13 21.75 199.69 C 20.25 203.71 16.59 207.38 12.02 207.14 C 9.69 206.80 10.60 203.78 11.08 202.29 C 32.19 142.13 53.51 82.06 74.54 21.88 C 75.96 17.52 77.85 12.52 82.41 10.61 Z" />
<path fill="#000000" d=" M 543.13 31.21 C 548.87 20.31 560.16 12.86 572.13 10.61 C 580.83 8.95 589.89 11.10 597.40 15.63 C 606.64 20.71 612.43 30.08 616.56 39.48 C 628.95 37.04 640.97 32.49 651.60 25.63 C 653.16 24.23 656.34 24.48 656.47 27.00 C 656.54 31.09 652.89 33.71 649.97 35.94 C 640.90 42.17 630.36 45.88 619.81 48.72 C 626.12 72.90 625.80 98.17 623.50 122.88 C 621.73 140.63 617.63 158.38 609.54 174.37 C 603.19 186.82 593.26 198.07 580.09 203.42 C 567.16 208.52 552.92 210.04 539.17 208.25 C 514.22 204.61 490.83 194.75 467.42 185.87 C 458.22 193.28 447.41 198.45 436.26 202.17 C 426.10 205.41 415.22 208.36 404.52 206.21 C 399.98 205.38 395.45 202.04 395.14 197.12 C 393.90 181.06 406.76 165.01 422.83 163.13 C 438.62 162.63 454.15 166.70 469.00 171.72 C 479.68 153.95 486.61 134.31 494.00 115.03 C 502.25 93.21 509.76 70.62 523.59 51.55 C 528.12 44.86 533.72 38.88 540.25 34.11 C 541.33 33.28 542.52 32.48 543.13 31.21 Z" />
<path fill="#ffffff" d=" M 562.44 22.66 C 570.89 20.20 580.10 21.93 587.68 26.19 C 594.14 29.66 598.70 35.67 602.31 41.89 C 594.34 43.82 586.11 43.53 577.98 43.50 C 571.34 43.34 564.20 43.27 558.35 39.72 C 555.55 37.76 551.99 34.85 552.85 31.00 C 554.69 27.08 558.30 23.97 562.44 22.66 Z" />
<path fill="#ffffff" d=" M 79.91 34.03 C 94.48 25.75 111.71 21.30 128.47 23.71 C 136.98 24.98 145.82 29.22 149.84 37.23 C 154.04 45.66 153.50 55.62 151.44 64.57 C 147.93 78.25 136.35 88.41 123.57 93.48 C 111.64 98.20 98.79 100.14 86.08 101.32 C 76.00 102.33 65.83 101.58 55.76 102.81 C 63.87 79.91 71.54 56.81 79.91 34.03 Z" />
<path fill="#000000" d=" M 227.21 35.19 C 228.42 34.98 230.46 34.63 230.83 36.27 C 231.19 37.56 230.37 38.81 230.13 40.05 C 227.57 48.17 225.14 56.34 222.61 64.47 C 221.43 68.21 218.89 71.94 214.99 73.18 C 213.66 73.59 211.25 73.86 211.05 71.91 C 210.89 70.24 211.55 68.65 211.98 67.08 C 214.52 59.11 216.91 51.10 219.45 43.14 C 220.60 39.51 223.36 36.07 227.21 35.19 Z" />
<path fill="#000000" d=" M 831.21 35.19 C 832.40 34.98 834.46 34.64 834.83 36.26 C 835.19 37.56 834.36 38.80 834.13 40.05 C 831.57 48.17 829.14 56.34 826.61 64.47 C 825.42 68.22 822.87 71.95 818.97 73.19 C 817.64 73.58 815.25 73.86 815.05 71.92 C 814.86 70.47 815.42 69.07 815.79 67.69 C 818.39 59.51 820.86 51.28 823.46 43.10 C 824.61 39.49 827.37 36.07 831.21 35.19 Z" />
<path fill="#ffffff" d=" M 541.86 42.20 C 544.16 49.62 551.90 53.53 559.18 54.26 C 575.00 56.07 590.99 54.18 606.63 51.63 C 613.53 72.68 613.58 95.16 612.47 117.05 C 611.37 135.82 608.46 154.98 599.89 171.92 C 595.05 180.98 587.87 189.31 578.22 193.32 C 565.36 198.75 550.87 198.20 537.46 195.37 C 516.43 190.70 496.59 182.08 476.46 174.60 C 488.93 155.64 495.94 133.92 504.04 112.90 C 510.30 96.26 516.60 79.56 524.87 63.79 C 529.13 55.62 534.82 48.17 541.86 42.20 Z" />
<path fill="#000000" d=" M 979.80 110.82 C 982.13 104.47 987.10 98.46 993.95 96.93 C 1000.80 95.36 1007.47 99.05 1012.55 103.33 C 1022.86 112.40 1028.42 126.41 1027.86 140.06 C 1027.67 147.33 1025.04 154.19 1023.24 161.15 C 1033.85 168.15 1046.70 172.07 1059.44 170.73 C 1067.45 169.80 1075.38 165.97 1080.39 159.57 C 1082.13 148.28 1083.33 136.66 1088.19 126.15 C 1092.69 115.79 1101.23 106.13 1112.74 103.90 C 1119.45 102.67 1126.96 102.29 1133.05 105.87 C 1137.52 108.47 1139.97 113.79 1139.39 118.89 C 1138.55 125.86 1134.78 132.12 1130.31 137.39 C 1119.83 149.73 1106.08 158.70 1092.04 166.47 C 1093.62 177.19 1099.91 187.07 1109.03 192.93 C 1118.73 199.14 1130.97 200.10 1142.06 197.94 C 1159.00 194.47 1174.56 185.86 1187.69 174.76 C 1193.93 169.66 1199.58 163.92 1205.32 158.28 C 1207.03 156.59 1210.08 154.61 1212.17 156.90 C 1214.26 159.28 1211.55 162.14 1209.95 163.93 C 1197.18 176.75 1183.39 188.86 1167.50 197.69 C 1156.73 203.45 1145.19 208.14 1133.04 209.90 C 1120.43 211.62 1106.73 209.60 1096.39 201.77 C 1086.48 194.38 1081.24 182.15 1080.23 170.06 C 1070.00 179.30 1055.75 183.71 1042.08 182.19 C 1033.28 181.44 1024.89 178.26 1017.25 173.94 C 1009.44 188.53 995.99 200.22 979.91 204.62 C 971.85 206.67 963.02 208.41 955.06 205.07 C 948.88 203.22 943.20 198.61 941.99 192.00 C 939.13 178.47 943.49 164.78 947.95 152.11 C 950.46 144.41 955.09 137.34 955.87 129.14 C 956.59 122.86 952.24 116.11 945.90 114.86 C 940.43 113.71 935.03 115.91 930.16 118.16 C 915.77 125.25 903.67 136.25 893.23 148.29 C 889.66 152.18 886.89 156.68 883.90 161.00 C 871.65 175.34 856.73 187.58 839.72 195.86 C 828.14 201.37 815.15 205.44 802.21 203.41 C 795.03 202.23 787.58 198.40 784.58 191.44 C 781.63 185.14 781.83 178.03 782.65 171.31 C 770.96 181.98 758.55 192.14 744.46 199.49 C 734.53 204.78 723.21 207.12 712.00 206.92 C 707.41 206.78 702.50 205.26 699.62 201.49 C 696.21 197.12 695.85 191.27 696.09 185.95 C 696.97 171.24 701.66 157.09 707.21 143.54 C 696.34 148.13 682.98 148.57 672.71 142.22 C 667.53 149.79 659.89 155.05 653.52 161.51 C 650.90 163.98 648.44 166.99 644.89 168.13 C 641.97 168.68 641.22 164.55 642.89 162.84 C 650.33 154.03 660.10 147.22 666.35 137.39 C 663.81 133.61 660.65 129.87 660.16 125.17 C 658.83 117.07 663.10 108.32 670.45 104.62 C 673.62 103.16 677.55 102.30 680.74 104.16 C 683.58 105.52 684.87 108.82 684.71 111.83 C 684.41 118.07 681.87 123.89 679.71 129.66 C 685.77 133.40 692.75 136.07 699.99 135.38 C 706.02 135.13 711.62 132.51 716.68 129.40 C 718.20 128.52 720.67 127.19 721.95 129.11 C 723.16 130.33 721.94 132.14 721.59 133.49 C 715.50 146.75 709.42 160.33 707.34 174.89 C 706.69 180.74 706.37 187.68 710.76 192.25 C 715.05 196.44 721.56 195.50 727.00 195.02 C 738.85 193.83 749.53 187.91 759.04 181.07 C 768.05 174.48 776.70 167.33 784.68 159.53 C 790.77 142.64 796.72 125.67 802.77 108.75 C 804.07 105.24 806.40 101.62 810.10 100.34 C 811.44 100.05 813.61 99.45 814.33 101.11 C 814.79 102.73 814.15 104.35 813.66 105.88 C 808.86 118.94 804.11 132.03 799.34 145.11 C 795.59 155.31 791.17 166.21 793.75 177.24 C 795.21 184.64 801.66 190.26 808.91 191.71 C 820.07 194.10 831.42 190.34 841.44 185.60 C 858.67 177.49 872.43 163.67 883.73 148.61 C 895.36 134.66 908.54 121.75 924.00 112.08 C 931.60 107.53 939.91 103.22 948.97 103.04 C 955.66 103.12 963.11 106.52 965.58 113.12 C 968.16 120.55 966.67 128.77 963.61 135.81 C 958.99 146.50 954.48 157.39 952.56 168.94 C 951.59 175.29 951.44 182.33 954.91 188.00 C 958.05 193.08 964.22 195.30 969.95 195.44 C 978.10 195.38 986.54 193.96 993.54 189.55 C 1001.02 184.85 1006.33 177.45 1010.19 169.63 C 999.42 162.33 989.99 152.81 983.61 141.41 C 978.50 132.24 976.29 120.94 979.80 110.82 Z" />
<path fill="#ffffff" d=" M 990.23 107.85 C 998.28 108.52 1004.50 114.79 1008.95 121.04 C 1016.08 130.87 1018.84 143.74 1015.66 155.55 C 1004.97 147.26 995.84 136.53 990.88 123.84 C 988.84 118.77 988.38 113.05 990.23 107.85 Z" />
<path fill="#ffffff" d=" M 51.48 115.01 C 66.99 115.01 82.49 114.96 98.00 115.04 C 110.59 115.32 124.12 117.66 133.92 126.19 C 139.90 131.24 141.60 139.62 140.78 147.10 C 139.25 160.61 132.24 173.49 121.55 181.93 C 96.38 178.43 72.35 169.65 48.80 160.42 C 44.86 159.07 41.16 156.58 36.88 156.55 C 41.83 142.74 46.62 128.86 51.48 115.01 Z" />
<path fill="#ffffff" d=" M 671.75 114.80 C 672.91 116.61 673.16 118.75 672.57 120.82 C 672.07 118.84 671.80 116.83 671.75 114.80 Z" />
<path fill="#ffffff" d=" M 1100.38 121.46 C 1105.35 114.07 1115.97 112.79 1123.59 116.44 C 1127.43 118.27 1129.45 123.01 1128.01 127.04 C 1125.95 134.09 1120.09 139.09 1114.51 143.45 C 1107.41 148.83 1099.66 153.27 1091.80 157.41 C 1092.97 145.21 1092.88 131.80 1100.38 121.46 Z" />
<path fill="#ffffff" d=" M 302.00 134.07 C 315.45 123.73 332.11 118.70 348.57 115.62 C 341.25 137.05 333.88 158.46 326.57 179.89 C 325.48 183.09 324.60 186.68 321.65 188.72 C 315.18 193.50 307.01 195.83 299.01 195.97 C 292.87 196.11 286.38 193.10 283.56 187.44 C 280.65 181.39 280.77 174.40 281.44 167.87 C 282.97 154.27 291.33 142.26 302.00 134.07 Z" />
<path fill="#ffffff" d=" M 415.78 173.71 C 421.44 172.24 427.36 173.43 432.96 174.63 C 442.00 176.86 450.83 179.85 459.61 182.91 C 447.76 190.42 433.94 194.34 420.03 195.48 C 416.01 195.47 411.54 195.33 408.26 192.73 C 405.70 190.67 405.57 187.00 406.41 184.08 C 407.71 179.47 410.91 174.94 415.78 173.71 Z" />
<path fill="#ffffff" d=" M 45.09 173.90 C 64.28 181.34 83.87 188.14 104.21 191.62 C 93.52 196.10 81.48 197.70 70.07 195.43 C 58.73 193.19 49.33 184.51 45.09 173.90 Z" />
</svg>
